<?xml version="1.0" encoding="UTF-8" standalone="no"?>
<svg width="800" height="600" xmlns="http://www.w3.org/2000/svg">
  <rect width="100%" height="100%" fill="#f9f9f9"/>
  <text x="400" y="30" font-family="Arial" font-size="20" text-anchor="middle" font-weight="bold">Data Park Architecture</text>
  
  <!-- Kubernetes Cluster Box -->
  <rect x="50" y="50" width="700" height="500" fill="none" stroke="#333" stroke-width="2" stroke-dasharray="5,5"/>
  <text x="400" y="70" font-family="Arial" font-size="16" text-anchor="middle">Kubernetes Cluster</text>
  
  <!-- PostgreSQL -->
  <rect x="100" y="100" width="120" height="80" fill="#336791" stroke="#333" stroke-width="2" rx="10"/>
  <text x="160" y="145" font-family="Arial" font-size="14" text-anchor="middle" fill="white">PostgreSQL</text>
  
  <!-- Kafka -->
  <rect x="340" y="100" width="120" height="80" fill="#231f20" stroke="#333" stroke-width="2" rx="10"/>
  <text x="400" y="145" font-family="Arial" font-size="14" text-anchor="middle" fill="white">Kafka</text>
  
  <!-- Zookeeper -->
  <rect x="500" y="100" width="120" height="80" fill="#573d7a" stroke="#333" stroke-width="2" rx="10"/>
  <text x="560" y="145" font-family="Arial" font-size="14" text-anchor="middle" fill="white">Zookeeper</text>
  
  <!-- Spark Master -->
  <rect x="100" y="250" width="120" height="80" fill="#e25a1c" stroke="#333" stroke-width="2" rx="10"/>
  <text x="160" y="285" font-family="Arial" font-size="14" text-anchor="middle" fill="white">Spark Master</text>
  
  <!-- Spark Workers -->
  <rect x="260" y="250" width="120" height="80" fill="#e25a1c" stroke="#333" stroke-width="2" rx="10"/>
  <text x="320" y="285" font-family="Arial" font-size="14" text-anchor="middle" fill="white">Spark Workers</text>
  
  <!-- Spark History -->
  <rect x="420" y="250" width="120" height="80" fill="#e25a1c" stroke="#333" stroke-width="2" rx="10"/>
  <text x="480" y="285" font-family="Arial" font-size="14" text-anchor="middle" fill="white">Spark History</text>
  
  <!-- Airflow Webserver -->
  <rect x="100" y="400" width="120" height="80" fill="#017cee" stroke="#333" stroke-width="2" rx="10"/>
  <text x="160" y="435" font-family="Arial" font-size="14" text-anchor="middle" fill="white">Airflow Web</text>
  
  <!-- Airflow Scheduler -->
  <rect x="260" y="400" width="120" height="80" fill="#017cee" stroke="#333" stroke-width="2" rx="10"/>
  <text x="320" y="435" font-family="Arial" font-size="14" text-anchor="middle" fill="white">Airflow Scheduler</text>
  
  <!-- Airflow Workers -->
  <rect x="420" y="400" width="120" height="80" fill="#017cee" stroke="#333" stroke-width="2" rx="10"/>
  <text x="480" y="435" font-family="Arial" font-size="14" text-anchor="middle" fill="white">Airflow Workers</text>
  
  <!-- Jupyter -->
  <rect x="580" y="400" width="120" height="80" fill="#f37626" stroke="#333" stroke-width="2" rx="10"/>
  <text x="640" y="435" font-family="Arial" font-size="14" text-anchor="middle" fill="white">Jupyter</text>
  
  <!-- Connections -->
  <!-- PostgreSQL -> Spark -->
  <line x1="160" y1="180" x2="160" y2="250" stroke="#333" stroke-width="2"/>
  <circle cx="160" cy="215" r="5" fill="#333"/>
  
  <!-- PostgreSQL -> Airflow -->
  <line x1="130" y1="180" x2="130" y2="400" stroke="#333" stroke-width="2"/>
  <circle cx="130" cy="290" r="5" fill="#333"/>
  
  <!-- Kafka -> Spark -->
  <line x1="400" y1="180" x2="320" y2="250" stroke="#333" stroke-width="2"/>
  <circle cx="360" cy="215" r="5" fill="#333"/>
  
  <!-- Zookeeper -> Kafka -->
  <line x1="500" y1="140" x2="460" y2="140" stroke="#333" stroke-width="2"/>
  <circle cx="480" cy="140" r="5" fill="#333"/>
  
  <!-- Spark Master -> Workers -->
  <line x1="220" y1="290" x2="260" y2="290" stroke="#333" stroke-width="2"/>
  <circle cx="240" cy="290" r="5" fill="#333"/>
  
  <!-- Spark Master -> History -->
  <line x1="220" y1="270" x2="420" y2="270" stroke="#333" stroke-width="2"/>
  <circle cx="320" cy="270" r="5" fill="#333"/>
  
  <!-- Airflow Web -> Scheduler -->
  <line x1="220" y1="440" x2="260" y2="440" stroke="#333" stroke-width="2"/>
  <circle cx="240" cy="440" r="5" fill="#333"/>
  
  <!-- Airflow Scheduler -> Workers -->
  <line x1="380" y1="440" x2="420" y2="440" stroke="#333" stroke-width="2"/>
  <circle cx="400" cy="440" r="5" fill="#333"/>
  
  <!-- Airflow -> Spark -->
  <line x1="320" y1="400" x2="320" y2="330" stroke="#333" stroke-width="2"/>
  <circle cx="320" cy="365" r="5" fill="#333"/>
  
  <!-- Jupyter -> Spark -->
  <line x1="640" y1="400" x2="480" y2="330" stroke="#333" stroke-width="2"/>
  <circle cx="560" cy="365" r="5" fill="#333"/>
  
  <!-- Legend -->
  <rect x="600" y="250" width="120" height="100" fill="white" stroke="#333" stroke-width="1"/>
  <text x="660" y="270" font-family="Arial" font-size="12" text-anchor="middle" font-weight="bold">Legend</text>
  
  <rect x="610" y="280" width="15" height="15" fill="#336791"/>
  <text x="635" y="293" font-family="Arial" font-size="10" text-anchor="start">Storage</text>
  
  <rect x="610" y="300" width="15" height="15" fill="#231f20"/>
  <text x="635" y="313" font-family="Arial" font-size="10" text-anchor="start">Messaging</text>
  
  <rect x="610" y="320" width="15" height="15" fill="#e25a1c"/>
  <text x="635" y="333" font-family="Arial" font-size="10" text-anchor="start">Processing</text>
</svg>
